<?xml version="1.0" encoding="utf-8"?>
<?xml-stylesheet type="text/css" href="../styles/common.css"?>

<!DOCTYPE svg>
<svg version="1.1" id="logo-svg" xmlns="http://www.w3.org/2000/svg" xmlns:xlink="http://www.w3.org/1999/xlink" 
     x="0px" y="0px" width="595.28px" height="841.89px" viewBox="0 0 595.28 841.89" enable-background="new 0 0 595.28 841.89" xml:space="preserve">

	<path class="logo-main" fill="#999" d="M452.398,337.625H325.235c11.483,0,20.847-9.352,20.847-20.859c0-11.507-9.365-20.779-20.847-20.779h-52.007
		c-11.489,0-20.822,9.272-20.822,20.779c0,11.507,9.34,20.859,20.822,20.859h-127.17c-35.383,0-64.684,31.714-70.373,65.472h447.122
		C517.088,369.338,487.8,337.625,452.398,337.625z"/>
	<path class="logo-main" fill="#999" d="M523.842,438.824v-5.935H75.686h-1.053H0v29.768h74.627v184.471c0,39.478,31.991,71.444,71.432,71.444
		h306.346c39.465,0,71.438-31.96,71.438-71.444V468.593h71.444v-29.768L523.842,438.824L523.842,438.824z"/>
	<path class="logo-add" fill="#999" d="M189.914,194.835c2.075,2.758,4.285,5.387,6.594,7.875l5.763,5.75c3.651,3.669,7.043,7.327,9.752,10.627
		c1.361,1.669,2.475,3.238,3.3,4.525c0.794,1.299,1.515,2.29,1.681,3.78c0.203,1.564-0.628,3.706-2.247,5.849
		c-1.607,2.106-3.891,4.156-6.526,6.225c3.134,1.201,6.563,1.607,10.227,1.182c3.633-0.449,7.628-2.063,10.953-5.529
		c3.3-3.454,5.135-8.583,5.43-13.102c0.314-4.531-0.382-8.663-1.398-12.381c-2.075-7.407-5.529-13.416-9.204-18.932
		c-1.847-2.691-4.125-5.449-5.744-7.536c-1.619-1.915-3.122-3.86-4.488-5.806c-5.572-7.758-9.469-14.764-10.935-22.977
		c-1.564-8.275,0.135-18.908,5.153-31.067c-13.034,2.727-24.621,13.619-28.395,28.863c-1.884,7.536-1.478,15.774,0.542,23.014
		C182.353,182.589,185.881,189.128,189.914,194.835z"/>
	<path class="logo-add" fill="#999" d="M267.096,194.835c2.081,2.758,4.304,5.387,6.6,7.875l5.744,5.75c3.645,3.669,7.025,7.327,9.796,10.627
		c1.305,1.669,2.407,3.238,3.269,4.525c0.825,1.299,1.515,2.29,1.656,3.78c0.209,1.564-0.603,3.706-2.21,5.849
		c-1.607,2.106-3.897,4.156-6.569,6.225c3.183,1.201,6.612,1.607,10.263,1.182c3.614-0.449,7.653-2.063,10.953-5.529
		c3.337-3.454,5.135-8.583,5.449-13.102c0.314-4.531-0.363-8.663-1.391-12.381c-2.106-7.407-5.572-13.416-9.248-18.932
		c-1.816-2.691-4.107-5.449-5.726-7.536c-1.588-1.915-3.121-3.86-4.458-5.806c-5.597-7.758-9.518-14.764-10.971-22.977
		c-1.527-8.275,0.123-18.908,5.123-31.067c-12.997,2.727-24.584,13.619-28.346,28.863c-1.884,7.536-1.49,15.774,0.529,23.014
		C259.572,182.589,263.039,189.128,267.096,194.835z"/>
	<path class="logo-add" fill="#999" d="M337.432,194.835c2.063,2.758,4.273,5.387,6.582,7.875l5.763,5.75c3.639,3.669,7.013,7.327,9.746,10.627
		c1.355,1.669,2.475,3.238,3.3,4.525c0.782,1.299,1.478,2.29,1.681,3.78c0.215,1.564-0.634,3.706-2.247,5.849
		c-1.595,2.106-3.891,4.156-6.563,6.225c3.165,1.201,6.612,1.607,10.227,1.182c3.633-0.449,7.659-2.063,10.99-5.529
		c3.3-3.454,5.116-8.583,5.412-13.102c0.332-4.531-0.351-8.663-1.385-12.381c-2.075-7.407-5.51-13.416-9.204-18.932
		c-1.847-2.691-4.125-5.449-5.75-7.536c-1.607-1.915-3.134-3.86-4.482-5.806c-5.578-7.758-9.469-14.764-10.916-22.977
		c-1.552-8.275,0.135-18.908,5.116-31.067c-13.009,2.727-24.621,13.619-28.371,28.863c-1.866,7.536-1.465,15.774,0.548,23.014
		C329.871,182.589,333.368,189.128,337.432,194.835z"/>
</svg>
