<?xml version="1.0" encoding="utf-8"?>
<!-- Generator: Adobe Illustrator 17.0.0, SVG Export Plug-In . SVG Version: 6.00 Build 0)  -->
<!DOCTYPE svg PUBLIC "-//W3C//DTD SVG 1.1//EN" "http://www.w3.org/Graphics/SVG/1.1/DTD/svg11.dtd">
<svg version="1.1" id="Слой_1" xmlns="http://www.w3.org/2000/svg" xmlns:xlink="http://www.w3.org/1999/xlink" x="0px" y="0px"
	 width="16px" height="16px" viewBox="0 0 16 16" enable-background="new 0 0 16 16" xml:space="preserve">
<path fill="#FFFFFF" d="M11.466,10.034h-0.725l-0.257-0.246c0.899-1.04,1.44-2.39,1.44-3.858C11.925,2.654,9.256,0,5.962,0
	S0,2.654,0,5.929s2.669,5.929,5.962,5.929c1.477,0,2.834-0.538,3.88-1.432l0.248,0.255v0.721l4.587,4.552l1.367-1.359L11.466,10.034
	z M5.962,10.034c-2.284,0-4.128-1.833-4.128-4.105s1.844-4.105,4.128-4.105s4.128,1.833,4.128,4.105S8.247,10.034,5.962,10.034z"/>
</svg>
